<svg version="1.1" viewBox="0.0 0.0 1024.0 768.0" fill="none" stroke="none" stroke-linecap="square" stroke-miterlimit="10" xmlns:xlink="http://www.w3.org/1999/xlink" xmlns="http://www.w3.org/2000/svg"><clipPath id="p.0"><path d="m0 0l1024.0 0l0 768.0l-1024.0 0l0 -768.0z" clip-rule="nonzero"/></clipPath><g clip-path="url(#p.0)"><path fill="#ffffff" d="m0 0l1024.0 0l0 768.0l-1024.0 0z" fill-rule="evenodd"/><path fill="#ffffff" d="m-8.0 0l768.0 0l0 778.4252l-768.0 0z" fill-rule="evenodd"/><path fill="#f4cccc" d="m204.0971 371.00525l0 0c0 -96.12363 77.923615 -174.04724 174.04724 -174.04724l0 0c46.160217 0 90.42981 18.337067 123.07001 50.97725c32.640198 32.640182 50.977234 76.909805 50.977234 123.06999l0 0c0 96.12363 -77.923584 174.04724 -174.04724 174.04724l0 0c-96.12363 0 -174.04724 -77.923615 -174.04724 -174.04724z" fill-rule="evenodd"/><path stroke="#b7b7b7" stroke-width="1.0" stroke-linejoin="round" stroke-linecap="butt" d="m204.0971 371.00525l0 0c0 -96.12363 77.923615 -174.04724 174.04724 -174.04724l0 0c46.160217 0 90.42981 18.337067 123.07001 50.97725c32.640198 32.640182 50.977234 76.909805 50.977234 123.06999l0 0c0 96.12363 -77.923584 174.04724 -174.04724 174.04724l0 0c-96.12363 0 -174.04724 -77.923615 -174.04724 -174.04724z" fill-rule="evenodd"/><path fill="#cfe2f3" d="m290.9475 371.00525l0 0c0 -48.1575 39.039368 -87.19684 87.19684 -87.19684l0 0c23.126038 0 45.3049 9.186768 61.6575 25.539368c16.35257 16.35257 25.539368 38.531433 25.539368 61.65747l0 0c0 48.1575 -39.039368 87.19684 -87.19687 87.19684l0 0c-48.15747 0 -87.19684 -39.039337 -87.19684 -87.19684z" fill-rule="evenodd"/><path stroke="#b7b7b7" stroke-width="1.0" stroke-linejoin="round" stroke-linecap="butt" d="m290.9475 371.00525l0 0c0 -48.1575 39.039368 -87.19684 87.19684 -87.19684l0 0c23.126038 0 45.3049 9.186768 61.6575 25.539368c16.35257 16.35257 25.539368 38.531433 25.539368 61.65747l0 0c0 48.1575 -39.039368 87.19684 -87.19687 87.19684l0 0c-48.15747 0 -87.19684 -39.039337 -87.19684 -87.19684z" fill-rule="evenodd"/><path fill="#000000" fill-opacity="0.0" d="m247.32545 240.18636l87.2126 0l0 87.2126l-87.2126 0z" fill-rule="evenodd"/><path stroke="#b7b7b7" stroke-width="1.0" stroke-linejoin="round" stroke-linecap="butt" d="m247.32545 240.18636l87.2126 0l0 87.2126l-87.2126 0z" fill-rule="evenodd"/><path fill="#000000" fill-opacity="0.0" d="m334.53806 240.18636l87.212616 0l0 87.2126l-87.212616 0z" fill-rule="evenodd"/><path stroke="#b7b7b7" stroke-width="1.0" stroke-linejoin="round" stroke-linecap="butt" d="m334.53806 240.18636l87.212616 0l0 87.2126l-87.212616 0z" fill-rule="evenodd"/><path fill="#000000" fill-opacity="0.0" d="m421.75067 240.18636l87.212585 0l0 87.2126l-87.212585 0z" fill-rule="evenodd"/><path stroke="#b7b7b7" stroke-width="1.0" stroke-linejoin="round" stroke-linecap="butt" d="m421.75067 240.18636l87.212585 0l0 87.2126l-87.212585 0z" fill-rule="evenodd"/><path fill="#000000" fill-opacity="0.0" d="m247.32545 327.39896l87.2126 0l0 87.212585l-87.2126 0z" fill-rule="evenodd"/><path stroke="#b7b7b7" stroke-width="1.0" stroke-linejoin="round" stroke-linecap="butt" d="m247.32545 327.39896l87.2126 0l0 87.212585l-87.2126 0z" fill-rule="evenodd"/><path fill="#000000" fill-opacity="0.0" d="m334.53806 327.39896l87.212616 0l0 87.212585l-87.212616 0z" fill-rule="evenodd"/><path stroke="#b7b7b7" stroke-width="1.0" stroke-linejoin="round" stroke-linecap="butt" d="m334.53806 327.39896l87.212616 0l0 87.212585l-87.212616 0z" fill-rule="evenodd"/><path fill="#000000" fill-opacity="0.0" d="m421.75067 327.39896l87.212585 0l0 87.212585l-87.212585 0z" fill-rule="evenodd"/><path stroke="#b7b7b7" stroke-width="1.0" stroke-linejoin="round" stroke-linecap="butt" d="m421.75067 327.39896l87.212585 0l0 87.212585l-87.212585 0z" fill-rule="evenodd"/><path fill="#000000" fill-opacity="0.0" d="m247.32545 414.61154l87.2126 0l0 87.212616l-87.2126 0z" fill-rule="evenodd"/><path stroke="#b7b7b7" stroke-width="1.0" stroke-linejoin="round" stroke-linecap="butt" d="m247.32545 414.61154l87.2126 0l0 87.212616l-87.2126 0z" fill-rule="evenodd"/><path fill="#000000" fill-opacity="0.0" d="m334.53806 414.61154l87.212616 0l0 87.212616l-87.212616 0z" fill-rule="evenodd"/><path stroke="#b7b7b7" stroke-width="1.0" stroke-linejoin="round" stroke-linecap="butt" d="m334.53806 414.61154l87.212616 0l0 87.212616l-87.212616 0z" fill-rule="evenodd"/><path fill="#000000" fill-opacity="0.0" d="m421.75067 414.61154l87.212585 0l0 87.212616l-87.212585 0z" fill-rule="evenodd"/><path stroke="#b7b7b7" stroke-width="1.0" stroke-linejoin="round" stroke-linecap="butt" d="m421.75067 414.61154l87.212585 0l0 87.212616l-87.212585 0z" fill-rule="evenodd"/><path fill="#000000" fill-opacity="0.0" d="m508.96326 240.18636l87.212585 0l0 87.2126l-87.212585 0z" fill-rule="evenodd"/><path stroke="#b7b7b7" stroke-width="1.0" stroke-linejoin="round" stroke-linecap="butt" d="m508.96326 240.18636l87.212585 0l0 87.2126l-87.212585 0z" fill-rule="evenodd"/><path fill="#000000" fill-opacity="0.0" d="m596.17584 240.18636l87.212585 0l0 87.2126l-87.212585 0z" fill-rule="evenodd"/><path stroke="#b7b7b7" stroke-width="1.0" stroke-linejoin="round" stroke-linecap="butt" d="m596.17584 240.18636l87.212585 0l0 87.2126l-87.212585 0z" fill-rule="evenodd"/><path fill="#000000" fill-opacity="0.0" d="m508.96326 327.39896l87.212585 0l0 87.212585l-87.212585 0z" fill-rule="evenodd"/><path stroke="#b7b7b7" stroke-width="1.0" stroke-linejoin="round" stroke-linecap="butt" d="m508.96326 327.39896l87.212585 0l0 87.212585l-87.212585 0z" fill-rule="evenodd"/><path fill="#000000" fill-opacity="0.0" d="m596.17584 327.39896l87.212585 0l0 87.212585l-87.212585 0z" fill-rule="evenodd"/><path stroke="#b7b7b7" stroke-width="1.0" stroke-linejoin="round" stroke-linecap="butt" d="m596.17584 327.39896l87.212585 0l0 87.212585l-87.212585 0z" fill-rule="evenodd"/><path fill="#000000" fill-opacity="0.0" d="m508.96326 414.61154l87.212585 0l0 87.212616l-87.212585 0z" fill-rule="evenodd"/><path stroke="#b7b7b7" stroke-width="1.0" stroke-linejoin="round" stroke-linecap="butt" d="m508.96326 414.61154l87.212585 0l0 87.212616l-87.212585 0z" fill-rule="evenodd"/><path fill="#000000" fill-opacity="0.0" d="m596.17584 414.61154l87.212585 0l0 87.212616l-87.212585 0z" fill-rule="evenodd"/><path stroke="#b7b7b7" stroke-width="1.0" stroke-linejoin="round" stroke-linecap="butt" d="m596.17584 414.61154l87.212585 0l0 87.212616l-87.212585 0z" fill-rule="evenodd"/><path fill="#000000" fill-opacity="0.0" d="m72.90026 240.18636l87.21259 0l0 87.2126l-87.21259 0z" fill-rule="evenodd"/><path stroke="#b7b7b7" stroke-width="1.0" stroke-linejoin="round" stroke-linecap="butt" d="m72.90026 240.18636l87.21259 0l0 87.2126l-87.21259 0z" fill-rule="evenodd"/><path fill="#000000" fill-opacity="0.0" d="m160.11285 240.18636l87.2126 0l0 87.2126l-87.2126 0z" fill-rule="evenodd"/><path stroke="#b7b7b7" stroke-width="1.0" stroke-linejoin="round" stroke-linecap="butt" d="m160.11285 240.18636l87.2126 0l0 87.2126l-87.2126 0z" fill-rule="evenodd"/><path fill="#000000" fill-opacity="0.0" d="m72.90026 327.39896l87.21259 0l0 87.212585l-87.21259 0z" fill-rule="evenodd"/><path stroke="#b7b7b7" stroke-width="1.0" stroke-linejoin="round" stroke-linecap="butt" d="m72.90026 327.39896l87.21259 0l0 87.212585l-87.21259 0z" fill-rule="evenodd"/><path fill="#000000" fill-opacity="0.0" d="m160.11285 327.39896l87.2126 0l0 87.212585l-87.2126 0z" fill-rule="evenodd"/><path stroke="#b7b7b7" stroke-width="1.0" stroke-linejoin="round" stroke-linecap="butt" d="m160.11285 327.39896l87.2126 0l0 87.212585l-87.2126 0z" fill-rule="evenodd"/><path fill="#000000" fill-opacity="0.0" d="m72.90026 414.61154l87.21259 0l0 87.212616l-87.21259 0z" fill-rule="evenodd"/><path stroke="#b7b7b7" stroke-width="1.0" stroke-linejoin="round" stroke-linecap="butt" d="m72.90026 414.61154l87.21259 0l0 87.212616l-87.21259 0z" fill-rule="evenodd"/><path fill="#000000" fill-opacity="0.0" d="m160.11285 414.61154l87.2126 0l0 87.212616l-87.2126 0z" fill-rule="evenodd"/><path stroke="#b7b7b7" stroke-width="1.0" stroke-linejoin="round" stroke-linecap="butt" d="m160.11285 414.61154l87.2126 0l0 87.212616l-87.2126 0z" fill-rule="evenodd"/><path fill="#000000" fill-opacity="0.0" d="m247.32545 501.82416l87.2126 0l0 87.212585l-87.2126 0z" fill-rule="evenodd"/><path stroke="#b7b7b7" stroke-width="1.0" stroke-linejoin="round" stroke-linecap="butt" d="m247.32545 501.82416l87.2126 0l0 87.212585l-87.2126 0z" fill-rule="evenodd"/><path fill="#000000" fill-opacity="0.0" d="m334.53806 501.82416l87.212616 0l0 87.212585l-87.212616 0z" fill-rule="evenodd"/><path stroke="#b7b7b7" stroke-width="1.0" stroke-linejoin="round" stroke-linecap="butt" d="m334.53806 501.82416l87.212616 0l0 87.212585l-87.212616 0z" fill-rule="evenodd"/><path fill="#000000" fill-opacity="0.0" d="m421.75067 501.82416l87.212585 0l0 87.212585l-87.212585 0z" fill-rule="evenodd"/><path stroke="#b7b7b7" stroke-width="1.0" stroke-linejoin="round" stroke-linecap="butt" d="m421.75067 501.82416l87.212585 0l0 87.212585l-87.212585 0z" fill-rule="evenodd"/><path fill="#000000" fill-opacity="0.0" d="m247.32545 589.03674l87.2126 0l0 87.212585l-87.2126 0z" fill-rule="evenodd"/><path stroke="#b7b7b7" stroke-width="1.0" stroke-linejoin="round" stroke-linecap="butt" d="m247.32545 589.03674l87.2126 0l0 87.212585l-87.2126 0z" fill-rule="evenodd"/><path fill="#000000" fill-opacity="0.0" d="m334.53806 589.03674l87.212616 0l0 87.212585l-87.212616 0z" fill-rule="evenodd"/><path stroke="#b7b7b7" stroke-width="1.0" stroke-linejoin="round" stroke-linecap="butt" d="m334.53806 589.03674l87.212616 0l0 87.212585l-87.212616 0z" fill-rule="evenodd"/><path fill="#000000" fill-opacity="0.0" d="m421.75067 589.03674l87.212585 0l0 87.212585l-87.212585 0z" fill-rule="evenodd"/><path stroke="#b7b7b7" stroke-width="1.0" stroke-linejoin="round" stroke-linecap="butt" d="m421.75067 589.03674l87.212585 0l0 87.212585l-87.212585 0z" fill-rule="evenodd"/><path fill="#000000" fill-opacity="0.0" d="m247.32545 676.2493l87.2126 0l0 87.212585l-87.2126 0z" fill-rule="evenodd"/><path stroke="#b7b7b7" stroke-width="1.0" stroke-linejoin="round" stroke-linecap="butt" d="m247.32545 676.2493l87.2126 0l0 87.212585l-87.2126 0z" fill-rule="evenodd"/><path fill="#000000" fill-opacity="0.0" d="m334.53806 676.2493l87.212616 0l0 87.212585l-87.212616 0z" fill-rule="evenodd"/><path stroke="#b7b7b7" stroke-width="1.0" stroke-linejoin="round" stroke-linecap="butt" d="m334.53806 676.2493l87.212616 0l0 87.212585l-87.212616 0z" fill-rule="evenodd"/><path fill="#000000" fill-opacity="0.0" d="m421.75067 676.2493l87.212585 0l0 87.212585l-87.212585 0z" fill-rule="evenodd"/><path stroke="#b7b7b7" stroke-width="1.0" stroke-linejoin="round" stroke-linecap="butt" d="m421.75067 676.2493l87.212585 0l0 87.212585l-87.212585 0z" fill-rule="evenodd"/><path fill="#000000" fill-opacity="0.0" d="m508.96326 501.82416l87.212585 0l0 87.212585l-87.212585 0z" fill-rule="evenodd"/><path stroke="#b7b7b7" stroke-width="1.0" stroke-linejoin="round" stroke-linecap="butt" d="m508.96326 501.82416l87.212585 0l0 87.212585l-87.212585 0z" fill-rule="evenodd"/><path fill="#000000" fill-opacity="0.0" d="m596.17584 501.82416l87.212585 0l0 87.212585l-87.212585 0z" fill-rule="evenodd"/><path stroke="#b7b7b7" stroke-width="1.0" stroke-linejoin="round" stroke-linecap="butt" d="m596.17584 501.82416l87.212585 0l0 87.212585l-87.212585 0z" fill-rule="evenodd"/><path fill="#000000" fill-opacity="0.0" d="m508.96326 589.03674l87.212585 0l0 87.212585l-87.212585 0z" fill-rule="evenodd"/><path stroke="#b7b7b7" stroke-width="1.0" stroke-linejoin="round" stroke-linecap="butt" d="m508.96326 589.03674l87.212585 0l0 87.212585l-87.212585 0z" fill-rule="evenodd"/><path fill="#000000" fill-opacity="0.0" d="m596.17584 589.03674l87.212585 0l0 87.212585l-87.212585 0z" fill-rule="evenodd"/><path stroke="#b7b7b7" stroke-width="1.0" stroke-linejoin="round" stroke-linecap="butt" d="m596.17584 589.03674l87.212585 0l0 87.212585l-87.212585 0z" fill-rule="evenodd"/><path fill="#000000" fill-opacity="0.0" d="m508.96326 676.2493l87.212585 0l0 87.212585l-87.212585 0z" fill-rule="evenodd"/><path stroke="#b7b7b7" stroke-width="1.0" stroke-linejoin="round" stroke-linecap="butt" d="m508.96326 676.2493l87.212585 0l0 87.212585l-87.212585 0z" fill-rule="evenodd"/><path fill="#000000" fill-opacity="0.0" d="m596.17584 676.2493l87.212585 0l0 87.212585l-87.212585 0z" fill-rule="evenodd"/><path stroke="#b7b7b7" stroke-width="1.0" stroke-linejoin="round" stroke-linecap="butt" d="m596.17584 676.2493l87.212585 0l0 87.212585l-87.212585 0z" fill-rule="evenodd"/><path fill="#000000" fill-opacity="0.0" d="m72.90026 501.82416l87.21259 0l0 87.212585l-87.21259 0z" fill-rule="evenodd"/><path stroke="#b7b7b7" stroke-width="1.0" stroke-linejoin="round" stroke-linecap="butt" d="m72.90026 501.82416l87.21259 0l0 87.212585l-87.21259 0z" fill-rule="evenodd"/><path fill="#000000" fill-opacity="0.0" d="m160.11285 501.82416l87.2126 0l0 87.212585l-87.2126 0z" fill-rule="evenodd"/><path stroke="#b7b7b7" stroke-width="1.0" stroke-linejoin="round" stroke-linecap="butt" d="m160.11285 501.82416l87.2126 0l0 87.212585l-87.2126 0z" fill-rule="evenodd"/><path fill="#000000" fill-opacity="0.0" d="m72.90026 589.03674l87.21259 0l0 87.212585l-87.21259 0z" fill-rule="evenodd"/><path stroke="#b7b7b7" stroke-width="1.0" stroke-linejoin="round" stroke-linecap="butt" d="m72.90026 589.03674l87.21259 0l0 87.212585l-87.21259 0z" fill-rule="evenodd"/><path fill="#000000" fill-opacity="0.0" d="m160.11285 589.03674l87.2126 0l0 87.212585l-87.2126 0z" fill-rule="evenodd"/><path stroke="#b7b7b7" stroke-width="1.0" stroke-linejoin="round" stroke-linecap="butt" d="m160.11285 589.03674l87.2126 0l0 87.212585l-87.2126 0z" fill-rule="evenodd"/><path fill="#000000" fill-opacity="0.0" d="m72.90026 676.2493l87.21259 0l0 87.212585l-87.21259 0z" fill-rule="evenodd"/><path stroke="#b7b7b7" stroke-width="1.0" stroke-linejoin="round" stroke-linecap="butt" d="m72.90026 676.2493l87.21259 0l0 87.212585l-87.21259 0z" fill-rule="evenodd"/><path fill="#000000" fill-opacity="0.0" d="m160.11285 676.2493l87.2126 0l0 87.212585l-87.2126 0z" fill-rule="evenodd"/><path stroke="#b7b7b7" stroke-width="1.0" stroke-linejoin="round" stroke-linecap="butt" d="m160.11285 676.2493l87.2126 0l0 87.212585l-87.2126 0z" fill-rule="evenodd"/><path fill="#000000" fill-opacity="0.0" d="m247.32545 65.761154l87.2126 0l0 87.2126l-87.2126 0z" fill-rule="evenodd"/><path stroke="#b7b7b7" stroke-width="1.0" stroke-linejoin="round" stroke-linecap="butt" d="m247.32545 65.761154l87.2126 0l0 87.2126l-87.2126 0z" fill-rule="evenodd"/><path fill="#000000" fill-opacity="0.0" d="m334.53806 65.761154l87.212616 0l0 87.2126l-87.212616 0z" fill-rule="evenodd"/><path stroke="#b7b7b7" stroke-width="1.0" stroke-linejoin="round" stroke-linecap="butt" d="m334.53806 65.761154l87.212616 0l0 87.2126l-87.212616 0z" fill-rule="evenodd"/><path fill="#000000" fill-opacity="0.0" d="m421.75067 65.761154l87.212585 0l0 87.2126l-87.212585 0z" fill-rule="evenodd"/><path stroke="#b7b7b7" stroke-width="1.0" stroke-linejoin="round" stroke-linecap="butt" d="m421.75067 65.761154l87.212585 0l0 87.2126l-87.212585 0z" fill-rule="evenodd"/><path fill="#000000" fill-opacity="0.0" d="m247.32545 152.97375l87.2126 0l0 87.2126l-87.2126 0z" fill-rule="evenodd"/><path stroke="#b7b7b7" stroke-width="1.0" stroke-linejoin="round" stroke-linecap="butt" d="m247.32545 152.97375l87.2126 0l0 87.2126l-87.2126 0z" fill-rule="evenodd"/><path fill="#000000" fill-opacity="0.0" d="m334.53806 152.97375l87.212616 0l0 87.2126l-87.212616 0z" fill-rule="evenodd"/><path stroke="#b7b7b7" stroke-width="1.0" stroke-linejoin="round" stroke-linecap="butt" d="m334.53806 152.97375l87.212616 0l0 87.2126l-87.212616 0z" fill-rule="evenodd"/><path fill="#000000" fill-opacity="0.0" d="m421.75067 152.97375l87.212585 0l0 87.2126l-87.212585 0z" fill-rule="evenodd"/><path stroke="#b7b7b7" stroke-width="1.0" stroke-linejoin="round" stroke-linecap="butt" d="m421.75067 152.97375l87.212585 0l0 87.2126l-87.212585 0z" fill-rule="evenodd"/><path fill="#000000" fill-opacity="0.0" d="m508.96326 65.761154l87.212585 0l0 87.2126l-87.212585 0z" fill-rule="evenodd"/><path stroke="#b7b7b7" stroke-width="1.0" stroke-linejoin="round" stroke-linecap="butt" d="m508.96326 65.761154l87.212585 0l0 87.2126l-87.212585 0z" fill-rule="evenodd"/><path fill="#000000" fill-opacity="0.0" d="m596.17584 65.761154l87.212585 0l0 87.2126l-87.212585 0z" fill-rule="evenodd"/><path stroke="#b7b7b7" stroke-width="1.0" stroke-linejoin="round" stroke-linecap="butt" d="m596.17584 65.761154l87.212585 0l0 87.2126l-87.212585 0z" fill-rule="evenodd"/><path fill="#000000" fill-opacity="0.0" d="m508.96326 152.97375l87.212585 0l0 87.2126l-87.212585 0z" fill-rule="evenodd"/><path stroke="#b7b7b7" stroke-width="1.0" stroke-linejoin="round" stroke-linecap="butt" d="m508.96326 152.97375l87.212585 0l0 87.2126l-87.212585 0z" fill-rule="evenodd"/><path fill="#000000" fill-opacity="0.0" d="m596.17584 152.97375l87.212585 0l0 87.2126l-87.212585 0z" fill-rule="evenodd"/><path stroke="#b7b7b7" stroke-width="1.0" stroke-linejoin="round" stroke-linecap="butt" d="m596.17584 152.97375l87.212585 0l0 87.2126l-87.212585 0z" fill-rule="evenodd"/><path fill="#cc0000" d="m375.35696 371.00525l0 0c0 -1.5394287 1.2479553 -2.7874146 2.787384 -2.7874146l0 0c0.73928833 0 1.4482727 0.29367065 1.9710083 0.81643677c0.5227356 0.5227356 0.81640625 1.23172 0.81640625 1.9709778l0 0c0 1.5394287 -1.2479553 2.7874146 -2.7874146 2.7874146l0 0c-1.5394287 0 -2.787384 -1.2479858 -2.787384 -2.7874146z" fill-rule="evenodd"/><path stroke="#b7b7b7" stroke-width="1.0" stroke-linejoin="round" stroke-linecap="butt" d="m375.35696 371.00525l0 0c0 -1.5394287 1.2479553 -2.7874146 2.787384 -2.7874146l0 0c0.73928833 0 1.4482727 0.29367065 1.9710083 0.81643677c0.5227356 0.5227356 0.81640625 1.23172 0.81640625 1.9709778l0 0c0 1.5394287 -1.2479553 2.7874146 -2.7874146 2.7874146l0 0c-1.5394287 0 -2.787384 -1.2479858 -2.787384 -2.7874146z" fill-rule="evenodd"/><path fill="#cc0000" d="m463.35696 371.00525l0 0c0 -1.5394287 1.2479553 -2.7874146 2.787384 -2.7874146l0 0c0.73928833 0 1.4482727 0.29367065 1.9710083 0.81643677c0.5227356 0.5227356 0.81640625 1.23172 0.81640625 1.9709778l0 0c0 1.5394287 -1.2479553 2.7874146 -2.7874146 2.7874146l0 0c-1.5394287 0 -2.787384 -1.2479858 -2.787384 -2.7874146z" fill-rule="evenodd"/><path stroke="#b7b7b7" stroke-width="1.0" stroke-linejoin="round" stroke-linecap="butt" d="m463.35696 371.00525l0 0c0 -1.5394287 1.2479553 -2.7874146 2.787384 -2.7874146l0 0c0.73928833 0 1.4482727 0.29367065 1.9710083 0.81643677c0.5227356 0.5227356 0.81640625 1.23172 0.81640625 1.9709778l0 0c0 1.5394287 -1.2479553 2.7874146 -2.7874146 2.7874146l0 0c-1.5394287 0 -2.787384 -1.2479858 -2.787384 -2.7874146z" fill-rule="evenodd"/><path fill="#cc0000" d="m287.35696 371.00525l0 0c0 -1.5394287 1.2479553 -2.7874146 2.787384 -2.7874146l0 0c0.73928833 0 1.4482727 0.29367065 1.9710083 0.81643677c0.5227356 0.5227356 0.81640625 1.23172 0.81640625 1.9709778l0 0c0 1.5394287 -1.2479553 2.7874146 -2.7874146 2.7874146l0 0c-1.5394287 0 -2.787384 -1.2479858 -2.787384 -2.7874146z" fill-rule="evenodd"/><path stroke="#b7b7b7" stroke-width="1.0" stroke-linejoin="round" stroke-linecap="butt" d="m287.35696 371.00525l0 0c0 -1.5394287 1.2479553 -2.7874146 2.787384 -2.7874146l0 0c0.73928833 0 1.4482727 0.29367065 1.9710083 0.81643677c0.5227356 0.5227356 0.81640625 1.23172 0.81640625 1.9709778l0 0c0 1.5394287 -1.2479553 2.7874146 -2.7874146 2.7874146l0 0c-1.5394287 0 -2.787384 -1.2479858 -2.787384 -2.7874146z" fill-rule="evenodd"/><path fill="#cc0000" d="m375.35696 459.00525l0 0c0 -1.5394287 1.2479553 -2.7874146 2.787384 -2.7874146l0 0c0.73928833 0 1.4482727 0.29367065 1.9710083 0.81643677c0.5227356 0.5227356 0.81640625 1.23172 0.81640625 1.9709778l0 0c0 1.5394287 -1.2479553 2.7874146 -2.7874146 2.7874146l0 0c-1.5394287 0 -2.787384 -1.2479858 -2.787384 -2.7874146z" fill-rule="evenodd"/><path stroke="#b7b7b7" stroke-width="1.0" stroke-linejoin="round" stroke-linecap="butt" d="m375.35696 459.00525l0 0c0 -1.5394287 1.2479553 -2.7874146 2.787384 -2.7874146l0 0c0.73928833 0 1.4482727 0.29367065 1.9710083 0.81643677c0.5227356 0.5227356 0.81640625 1.23172 0.81640625 1.9709778l0 0c0 1.5394287 -1.2479553 2.7874146 -2.7874146 2.7874146l0 0c-1.5394287 0 -2.787384 -1.2479858 -2.787384 -2.7874146z" fill-rule="evenodd"/><path fill="#cc0000" d="m375.35696 283.00525l0 0c0 -1.5394287 1.2479553 -2.7874146 2.787384 -2.7874146l0 0c0.73928833 0 1.4482727 0.29367065 1.9710083 0.81643677c0.5227356 0.5227356 0.81640625 1.23172 0.81640625 1.9709778l0 0c0 1.5394287 -1.2479553 2.7874146 -2.7874146 2.7874146l0 0c-1.5394287 0 -2.787384 -1.2479858 -2.787384 -2.7874146z" fill-rule="evenodd"/><path stroke="#b7b7b7" stroke-width="1.0" stroke-linejoin="round" stroke-linecap="butt" d="m375.35696 283.00525l0 0c0 -1.5394287 1.2479553 -2.7874146 2.787384 -2.7874146l0 0c0.73928833 0 1.4482727 0.29367065 1.9710083 0.81643677c0.5227356 0.5227356 0.81640625 1.23172 0.81640625 1.9709778l0 0c0 1.5394287 -1.2479553 2.7874146 -2.7874146 2.7874146l0 0c-1.5394287 0 -2.787384 -1.2479858 -2.787384 -2.7874146z" fill-rule="evenodd"/><path fill="#cc0000" d="m463.35696 459.00525l0 0c0 -1.5394287 1.2479553 -2.7874146 2.787384 -2.7874146l0 0c0.73928833 0 1.4482727 0.29367065 1.9710083 0.81643677c0.5227356 0.5227356 0.81640625 1.23172 0.81640625 1.9709778l0 0c0 1.5394287 -1.2479553 2.7874146 -2.7874146 2.7874146l0 0c-1.5394287 0 -2.787384 -1.2479858 -2.787384 -2.7874146z" fill-rule="evenodd"/><path stroke="#b7b7b7" stroke-width="1.0" stroke-linejoin="round" stroke-linecap="butt" d="m463.35696 459.00525l0 0c0 -1.5394287 1.2479553 -2.7874146 2.787384 -2.7874146l0 0c0.73928833 0 1.4482727 0.29367065 1.9710083 0.81643677c0.5227356 0.5227356 0.81640625 1.23172 0.81640625 1.9709778l0 0c0 1.5394287 -1.2479553 2.7874146 -2.7874146 2.7874146l0 0c-1.5394287 0 -2.787384 -1.2479858 -2.787384 -2.7874146z" fill-rule="evenodd"/><path fill="#cc0000" d="m463.35696 283.00525l0 0c0 -1.5394287 1.2479553 -2.7874146 2.787384 -2.7874146l0 0c0.73928833 0 1.4482727 0.29367065 1.9710083 0.81643677c0.5227356 0.5227356 0.81640625 1.23172 0.81640625 1.9709778l0 0c0 1.5394287 -1.2479553 2.7874146 -2.7874146 2.7874146l0 0c-1.5394287 0 -2.787384 -1.2479858 -2.787384 -2.7874146z" fill-rule="evenodd"/><path stroke="#b7b7b7" stroke-width="1.0" stroke-linejoin="round" stroke-linecap="butt" d="m463.35696 283.00525l0 0c0 -1.5394287 1.2479553 -2.7874146 2.787384 -2.7874146l0 0c0.73928833 0 1.4482727 0.29367065 1.9710083 0.81643677c0.5227356 0.5227356 0.81640625 1.23172 0.81640625 1.9709778l0 0c0 1.5394287 -1.2479553 2.7874146 -2.7874146 2.7874146l0 0c-1.5394287 0 -2.787384 -1.2479858 -2.787384 -2.7874146z" fill-rule="evenodd"/><path fill="#cc0000" d="m287.35696 459.00525l0 0c0 -1.5394287 1.2479553 -2.7874146 2.787384 -2.7874146l0 0c0.73928833 0 1.4482727 0.29367065 1.9710083 0.81643677c0.5227356 0.5227356 0.81640625 1.23172 0.81640625 1.9709778l0 0c0 1.5394287 -1.2479553 2.7874146 -2.7874146 2.7874146l0 0c-1.5394287 0 -2.787384 -1.2479858 -2.787384 -2.7874146z" fill-rule="evenodd"/><path stroke="#b7b7b7" stroke-width="1.0" stroke-linejoin="round" stroke-linecap="butt" d="m287.35696 459.00525l0 0c0 -1.5394287 1.2479553 -2.7874146 2.787384 -2.7874146l0 0c0.73928833 0 1.4482727 0.29367065 1.9710083 0.81643677c0.5227356 0.5227356 0.81640625 1.23172 0.81640625 1.9709778l0 0c0 1.5394287 -1.2479553 2.7874146 -2.7874146 2.7874146l0 0c-1.5394287 0 -2.787384 -1.2479858 -2.787384 -2.7874146z" fill-rule="evenodd"/><path fill="#cc0000" d="m287.35696 283.00525l0 0c0 -1.5394287 1.2479553 -2.7874146 2.787384 -2.7874146l0 0c0.73928833 0 1.4482727 0.29367065 1.9710083 0.81643677c0.5227356 0.5227356 0.81640625 1.23172 0.81640625 1.9709778l0 0c0 1.5394287 -1.2479553 2.7874146 -2.7874146 2.7874146l0 0c-1.5394287 0 -2.787384 -1.2479858 -2.787384 -2.7874146z" fill-rule="evenodd"/><path stroke="#b7b7b7" stroke-width="1.0" stroke-linejoin="round" stroke-linecap="butt" d="m287.35696 283.00525l0 0c0 -1.5394287 1.2479553 -2.7874146 2.787384 -2.7874146l0 0c0.73928833 0 1.4482727 0.29367065 1.9710083 0.81643677c0.5227356 0.5227356 0.81640625 1.23172 0.81640625 1.9709778l0 0c0 1.5394287 -1.2479553 2.7874146 -2.7874146 2.7874146l0 0c-1.5394287 0 -2.787384 -1.2479858 -2.787384 -2.7874146z" fill-rule="evenodd"/><path fill="#cc0000" d="m23.356955 107.00525l0 0c0 -1.5394363 1.247963 -2.7873993 2.787403 -2.7873993l0 0c0.73926353 0 1.4482498 0.29367065 1.9709892 0.81640625c0.5227394 0.5227432 0.816412 1.2317276 0.816412 1.970993l0 0c0 1.5394363 -1.247963 2.7873993 -2.7874012 2.7873993l0 0c-1.5394402 0 -2.787403 -1.247963 -2.787403 -2.7873993z" fill-rule="evenodd"/><path stroke="#b7b7b7" stroke-width="1.0" stroke-linejoin="round" stroke-linecap="butt" d="m23.356955 107.00525l0 0c0 -1.5394363 1.247963 -2.7873993 2.787403 -2.7873993l0 0c0.73926353 0 1.4482498 0.29367065 1.9709892 0.81640625c0.5227394 0.5227432 0.816412 1.2317276 0.816412 1.970993l0 0c0 1.5394363 -1.247963 2.7873993 -2.7874012 2.7873993l0 0c-1.5394402 0 -2.787403 -1.247963 -2.787403 -2.7873993z" fill-rule="evenodd"/><path fill="#000000" fill-opacity="0.0" d="m51.11286 85.997375l116.850395 0l0 42.015747l-116.850395 0z" fill-rule="evenodd"/><path fill="#000000" d="m61.347237 116.6205l0 -13.375l1.484375 0l0 1.25q0.53125 -0.734375 1.1875 -1.09375q0.671875 -0.375 1.625 -0.375q1.234375 0 2.171875 0.640625q0.953125 0.625 1.4375 1.796875q0.484375 1.15625 0.484375 2.546875q0 1.484375 -0.53125 2.671875q-0.53125 1.1875 -1.546875 1.828125q-1.015625 0.625 -2.140625 0.625q-0.8125 0 -1.46875 -0.34375q-0.65625 -0.34375 -1.0625 -0.875l0 4.703125l-1.640625 0zm1.484375 -8.484375q0 1.859375 0.75 2.765625q0.765625 0.890625 1.828125 0.890625q1.09375 0 1.875 -0.921875q0.78125 -0.9375 0.78125 -2.875q0 -1.84375 -0.765625 -2.765625q-0.75 -0.921875 -1.8125 -0.921875q-1.046875 0 -1.859375 0.984375q-0.796875 0.96875 -0.796875 2.84375zm8.891342 -6.6875l0 -1.890625l1.640625 0l0 1.890625l-1.640625 0zm0 11.46875l0 -9.671875l1.640625 0l0 9.671875l-1.640625 0zm3.0510712 0l3.53125 -5.03125l-3.265625 -4.640625l2.046875 0l1.484375 2.265625q0.421875 0.640625 0.671875 1.078125q0.40625 -0.59375 0.734375 -1.0625l1.640625 -2.28125l1.953125 0l-3.34375 4.546875l3.59375 5.125l-2.015625 0l-1.984375 -3.0l-0.515625 -0.8125l-2.546875 3.8125l-1.984375 0zm17.046875 -3.109375l1.6875 0.203125q-0.40625 1.484375 -1.484375 2.3125q-1.078125 0.8125 -2.765625 0.8125q-2.125 0 -3.375 -1.296875q-1.234375 -1.3125 -1.234375 -3.671875q0 -2.453125 1.25 -3.796875q1.265625 -1.34375 3.265625 -1.34375q1.9375 0 3.15625 1.328125q1.234375 1.3125 1.234375 3.703125q0 0.15625 0 0.4375l-7.21875 0q0.09375 1.59375 0.90625 2.453125q0.8125 0.84375 2.015625 0.84375q0.90625 0 1.546875 -0.46875q0.640625 -0.484375 1.015625 -1.515625zm-5.390625 -2.65625l5.40625 0q-0.109375 -1.21875 -0.625 -1.828125q-0.78125 -0.953125 -2.03125 -0.953125q-1.125 0 -1.90625 0.765625q-0.765625 0.75 -0.84375 2.015625zm9.094467 5.765625l0 -13.359375l1.640625 0l0 13.359375l-1.640625 0zm15.6875 -3.546875l1.609375 0.21875q-0.265625 1.65625 -1.359375 2.609375q-1.078125 0.9375 -2.671875 0.9375q-1.984375 0 -3.1875 -1.296875q-1.203125 -1.296875 -1.203125 -3.71875q0 -1.578125 0.515625 -2.75q0.515625 -1.171875 1.578125 -1.75q1.0625 -0.59375 2.3125 -0.59375q1.578125 0 2.578125 0.796875q1.0 0.796875 1.28125 2.265625l-1.59375 0.234375q-0.234375 -0.96875 -0.8125 -1.453125q-0.578125 -0.5 -1.390625 -0.5q-1.234375 0 -2.015625 0.890625q-0.78125 0.890625 -0.78125 2.8125q0 1.953125 0.75 2.84375q0.75 0.875 1.953125 0.875q0.96875 0 1.609375 -0.59375q0.65625 -0.59375 0.828125 -1.828125zm9.640625 0.4375l1.6875 0.203125q-0.40625 1.484375 -1.484375 2.3125q-1.078125 0.8125 -2.765625 0.8125q-2.125 0 -3.375 -1.296875q-1.234375 -1.3125 -1.234375 -3.671875q0 -2.453125 1.25 -3.796875q1.265625 -1.34375 3.265625 -1.34375q1.9375 0 3.15625 1.328125q1.234375 1.3125 1.234375 3.703125q0 0.15625 0 0.4375l-7.21875 0q0.09375 1.59375 0.90625 2.453125q0.8125 0.84375 2.015625 0.84375q0.90625 0 1.546875 -0.46875q0.640625 -0.484375 1.015625 -1.515625zm-5.390625 -2.65625l5.40625 0q-0.109375 -1.21875 -0.625 -1.828125q-0.78125 -0.953125 -2.03125 -0.953125q-1.125 0 -1.90625 0.765625q-0.765625 0.75 -0.84375 2.015625zm9.141342 5.765625l0 -9.671875l1.46875 0l0 1.375q1.0625 -1.59375 3.0781174 -1.59375q0.875 0 1.609375 0.3125q0.734375 0.3125 1.09375 0.828125q0.375 0.5 0.515625 1.203125q0.09375 0.453125 0.09375 1.59375l0 5.953125l-1.640625 0l0 -5.890625q0 -1.0 -0.203125 -1.484375q-0.1875 -0.5 -0.671875 -0.796875q-0.484375 -0.296875 -1.140625 -0.296875q-1.0468674 0 -1.8124924 0.671875q-0.75 0.65625 -0.75 2.515625l0 5.28125l-1.640625 0zm13.953835 -1.46875l0.234375 1.453125q-0.6875 0.140625 -1.234375 0.140625q-0.890625 0 -1.390625 -0.28125q-0.484375 -0.28125 -0.6875 -0.734375q-0.203125 -0.46875 -0.203125 -1.9375l0 -5.578125l-1.203125 0l0 -1.265625l1.203125 0l0 -2.390625l1.625 -0.984375l0 3.375l1.65625 0l0 1.265625l-1.65625 0l0 5.671875q0 0.6875 0.078125 0.890625q0.09375 0.203125 0.28125 0.328125q0.203125 0.109375 0.578125 0.109375q0.265625 0 0.71875 -0.0625zm8.230179 -1.640625l1.6875 0.203125q-0.40625 1.484375 -1.484375 2.3125q-1.078125 0.8125 -2.765625 0.8125q-2.125 0 -3.375 -1.296875q-1.234375 -1.3125 -1.234375 -3.671875q0 -2.453125 1.25 -3.796875q1.265625 -1.34375 3.265625 -1.34375q1.9375 0 3.15625 1.328125q1.234375 1.3125 1.234375 3.703125q0 0.15625 0 0.4375l-7.21875 0q0.09375 1.59375 0.90625 2.453125q0.8125 0.84375 2.015625 0.84375q0.90625 0 1.546875 -0.46875q0.640625 -0.484375 1.015625 -1.515625zm-5.390625 -2.65625l5.40625 0q-0.109375 -1.21875 -0.625 -1.828125q-0.78125 -0.953125 -2.03125 -0.953125q-1.125 0 -1.90625 0.765625q-0.765625 0.75 -0.84375 2.015625zm9.125717 5.765625l0 -9.671875l1.46875 0l0 1.46875q0.5625 -1.03125 1.03125 -1.359375q0.484375 -0.328125 1.0625 -0.328125q0.828125 0 1.6875 0.53125l-0.5625 1.515625q-0.609375 -0.359375 -1.203125 -0.359375q-0.546875 0 -0.96875 0.328125q-0.421875 0.328125 -0.609375 0.890625q-0.28125 0.875 -0.28125 1.921875l0 5.0625l-1.625 0z" fill-rule="nonzero"/><path fill="#cfe2f3" d="m15.624672 128.01312l21.039371 0l0 20.629929l-21.039371 0z" fill-rule="evenodd"/><path stroke="#b7b7b7" stroke-width="1.0" stroke-linejoin="round" stroke-linecap="butt" d="m15.624672 128.01312l21.039371 0l0 20.629929l-21.039371 0z" fill-rule="evenodd"/><path fill="#f4cccc" d="m15.624672 166.86351l21.039371 0l0 20.629929l-21.039371 0z" fill-rule="evenodd"/><path stroke="#b7b7b7" stroke-width="1.0" stroke-linejoin="round" stroke-linecap="butt" d="m15.624672 166.86351l21.039371 0l0 20.629929l-21.039371 0z" fill-rule="evenodd"/><path fill="#000000" fill-opacity="0.0" d="m51.11286 117.32021l195.77954 0l0 42.01574l-195.77954 0z" fill-rule="evenodd"/><path fill="#000000" d="m61.472237 144.2402l0 -13.359375l1.78125 0l0 11.78125l6.5625 0l0 1.578125l-8.34375 0zm16.563217 -1.1875q-0.921875 0.765625 -1.765625 1.09375q-0.828125 0.3125 -1.796875 0.3125q-1.59375 0 -2.453125 -0.78125q-0.859375 -0.78125 -0.859375 -1.984375q0 -0.71875 0.328125 -1.296875q0.328125 -0.59375 0.84375 -0.9375q0.53125 -0.359375 1.1875 -0.546875q0.46875 -0.125 1.453125 -0.25q1.984375 -0.234375 2.921875 -0.5625q0.015625 -0.34375 0.015625 -0.421875q0 -1.0 -0.46875 -1.421875q-0.625 -0.546875 -1.875 -0.546875q-1.15625 0 -1.703125 0.40625q-0.546875 0.40625 -0.8125 1.421875l-1.609375 -0.21875q0.21875 -1.015625 0.71875 -1.640625q0.5 -0.640625 1.453125 -0.984375q0.953125 -0.34375 2.1875 -0.34375q1.25 0 2.015625 0.296875q0.78125 0.28125 1.140625 0.734375q0.375 0.4375 0.515625 1.109375q0.078125 0.421875 0.078125 1.515625l0 2.1875q0 2.28125 0.109375 2.890625q0.109375 0.59375 0.40625 1.15625l-1.703125 0q-0.265625 -0.515625 -0.328125 -1.1875zm-0.140625 -3.671875q-0.890625 0.375 -2.671875 0.625q-1.015625 0.140625 -1.4375 0.328125q-0.421875 0.1875 -0.65625 0.53125q-0.21875 0.34375 -0.21875 0.78125q0 0.65625 0.5 1.09375q0.5 0.4375 1.453125 0.4375q0.9375 0 1.671875 -0.40625q0.75 -0.421875 1.09375 -1.140625q0.265625 -0.5625 0.265625 -1.640625l0 -0.609375zm4.203842 4.859375l0 -9.671875l1.46875 0l0 1.375q1.0625 -1.59375 3.078125 -1.59375q0.875 0 1.609375 0.3125q0.734375 0.3125 1.09375 0.828125q0.375 0.5 0.515625 1.203125q0.09375 0.453125 0.09375 1.59375l0 5.953125l-1.640625 0l0 -5.890625q0 -1.0 -0.203125 -1.484375q-0.1875 -0.5 -0.671875 -0.796875q-0.484375 -0.296875 -1.140625 -0.296875q-1.046875 0 -1.8125 0.671875q-0.75 0.65625 -0.75 2.515625l0 5.28125l-1.640625 0zm16.688217 -3.546875l1.609375 0.21875q-0.265625 1.65625 -1.359375 2.609375q-1.078125 0.9375 -2.671875 0.9375q-1.984375 0 -3.1875 -1.296875q-1.203125 -1.296875 -1.203125 -3.71875q0 -1.578125 0.515625 -2.75q0.515625 -1.171875 1.578125 -1.75q1.0625 -0.59375 2.3125 -0.59375q1.578125 0 2.578125 0.796875q1.0 0.796875 1.28125 2.265625l-1.59375 0.234375q-0.234375 -0.96875 -0.8125 -1.453125q-0.578125 -0.5 -1.390625 -0.5q-1.234375 0 -2.015625 0.890625q-0.78125 0.890625 -0.78125 2.8125q0 1.953125 0.75 2.84375q0.75 0.875 1.953125 0.875q0.96875 0 1.609375 -0.59375q0.65625 -0.59375 0.828125 -1.828125zm2.140625 3.546875l0 -1.328125l6.15625 -7.078125q-1.046875 0.0625 -1.84375 0.0625l-3.9375 0l0 -1.328125l7.90625 0l0 1.078125l-5.25 6.140625l-1.0 1.125q1.09375 -0.078125 2.0625 -0.078125l4.46875 0l0 1.40625l-8.5625 0zm9.59375 -4.84375q0 -2.6875 1.484375 -3.96875q1.25 -1.078125 3.046875 -1.078125q2.0 0 3.265625 1.3125q1.265625 1.296875 1.265625 3.609375q0 1.859375 -0.5625 2.9375q-0.5625 1.0625 -1.640625 1.65625q-1.0625 0.59375 -2.328125 0.59375q-2.03125 0 -3.28125 -1.296875q-1.25 -1.3125 -1.25 -3.765625zm1.6875 0q0 1.859375 0.796875 2.796875q0.8125 0.921875 2.046875 0.921875q1.21875 0 2.03125 -0.921875q0.8125 -0.9375 0.8125 -2.84375q0 -1.796875 -0.8125 -2.71875q-0.8125 -0.921875 -2.03125 -0.921875q-1.234375 0 -2.046875 0.921875q-0.796875 0.90625 -0.796875 2.765625zm8.641342 1.953125l1.625 -0.25q0.125 0.96875 0.75 1.5q0.625 0.515625 1.75 0.515625q1.125 0 1.671875 -0.453125q0.546875 -0.46875 0.546875 -1.09375q0 -0.546875 -0.484375 -0.875q-0.328125 -0.21875 -1.671875 -0.546875q-1.8125 -0.46875 -2.515625 -0.796875q-0.6875 -0.328125 -1.046875 -0.90625q-0.359375 -0.59375 -0.359375 -1.3125q0 -0.640625 0.296875 -1.1875q0.296875 -0.5625 0.8125 -0.921875q0.375 -0.28125 1.03125 -0.46875q0.671875 -0.203125 1.421875 -0.203125q1.140625 0 2.0 0.328125q0.859375 0.328125 1.265625 0.890625q0.42186737 0.5625 0.5781174 1.5l-1.6093674 0.21875q-0.109375 -0.75 -0.640625 -1.171875q-0.515625 -0.421875 -1.46875 -0.421875q-1.140625 0 -1.625 0.375q-0.46875 0.375 -0.46875 0.875q0 0.3125 0.1875 0.578125q0.203125 0.265625 0.640625 0.4375q0.234375 0.09375 1.4375 0.421875q1.75 0.453125 2.4375 0.75q0.6874924 0.296875 1.0781174 0.859375q0.390625 0.5625 0.390625 1.40625q0 0.828125 -0.484375 1.546875q-0.46874237 0.71875 -1.3749924 1.125q-0.90625 0.390625 -2.046875 0.390625q-1.875 0 -2.875 -0.78125q-0.984375 -0.78125 -1.25 -2.328125zm16.948921 2.890625l-2.96875 -9.671875l1.703125 0l1.53125 5.578125l0.578125 2.078125q0.046875 -0.15625 0.5 -2.0l1.546875 -5.65625l1.6875 0l1.4375 5.609375l0.484375 1.84375l0.5625 -1.859375l1.65625 -5.59375l1.59375 0l-3.03125 9.671875l-1.703125 0l-1.53125 -5.796875l-0.375 -1.640625l-1.953125 7.4375l-1.71875 0zm18.316696 -3.109375l1.6875 0.203125q-0.40625 1.484375 -1.484375 2.3125q-1.078125 0.8125 -2.765625 0.8125q-2.125 0 -3.375 -1.296875q-1.234375 -1.3125 -1.234375 -3.671875q0 -2.453125 1.25 -3.796875q1.265625 -1.34375 3.265625 -1.34375q1.9375 0 3.15625 1.328125q1.234375 1.3125 1.234375 3.703125q0 0.15625 0 0.4375l-7.21875 0q0.09375 1.59375 0.90625 2.453125q0.8125 0.84375 2.015625 0.84375q0.90625 0 1.546875 -0.46875q0.640625 -0.484375 1.015625 -1.515625zm-5.390625 -2.65625l5.40625 0q-0.109375 -1.21875 -0.625 -1.828125q-0.78125 -0.953125 -2.03125 -0.953125q-1.125 0 -1.90625 0.765625q-0.765625 0.75 -0.84375 2.015625zm9.141342 -5.703125l0 -1.890625l1.640625 0l0 1.890625l-1.640625 0zm0 11.46875l0 -9.671875l1.640625 0l0 9.671875l-1.640625 0zm3.8323212 0.796875l1.59375 0.234375q0.109375 0.75 0.5625 1.078125q0.609375 0.453125 1.671875 0.453125q1.140625 0 1.75 -0.453125q0.625 -0.453125 0.84375 -1.265625q0.125 -0.5 0.109375 -2.109375q-1.0625 1.265625 -2.671875 1.265625q-2.0 0 -3.09375 -1.4375q-1.09375 -1.4375 -1.09375 -3.453125q0 -1.390625 0.5 -2.5625q0.515625 -1.171875 1.453125 -1.796875q0.953125 -0.640625 2.25 -0.640625q1.703125 0 2.8125 1.375l0 -1.15625l1.515625 0l0 8.359375q0 2.265625 -0.46875 3.203125q-0.453125 0.9375 -1.453125 1.484375q-0.984375 0.546875 -2.453125 0.546875q-1.71875 0 -2.796875 -0.78125q-1.0625 -0.765625 -1.03125 -2.34375zm1.359375 -5.8125q0 1.90625 0.75 2.78125q0.765625 0.875 1.90625 0.875q1.125 0 1.890625 -0.859375q0.765625 -0.875 0.765625 -2.734375q0 -1.78125 -0.796875 -2.671875q-0.78125 -0.90625 -1.890625 -0.90625q-1.09375 0 -1.859375 0.890625q-0.765625 0.875 -0.765625 2.625zm9.328842 5.015625l0 -13.359375l1.640625 0l0 4.796875q1.140625 -1.328125 2.890625 -1.328125q1.078125 0 1.859375 0.421875q0.796875 0.421875 1.140625 1.171875q0.34375 0.75 0.34375 2.171875l0 6.125l-1.640625 0l0 -6.125q0 -1.234375 -0.53125 -1.796875q-0.53125 -0.5625 -1.515625 -0.5625q-0.71875 0 -1.359375 0.390625q-0.640625 0.375 -0.921875 1.015625q-0.265625 0.640625 -0.265625 1.78125l0 5.296875l-1.640625 0zm13.953842 -1.46875l0.234375 1.453125q-0.6875 0.140625 -1.234375 0.140625q-0.890625 0 -1.390625 -0.28125q-0.484375 -0.28125 -0.6875 -0.734375q-0.203125 -0.46875 -0.203125 -1.9375l0 -5.578125l-1.203125 0l0 -1.265625l1.203125 0l0 -2.390625l1.625 -0.984375l0 3.375l1.65625 0l0 1.265625l-1.65625 0l0 5.671875q0 0.6875 0.078125 0.890625q0.09375 0.203125 0.28125 0.328125q0.203125 0.109375 0.578125 0.109375q0.265625 0 0.71875 -0.0625zm15.413483 -4.375l-8.84375 3.78125l0 -1.625l7.015625 -2.90625l-7.015625 -2.875l0 -1.640625l8.84375 3.734375l0 1.53125zm7.0001373 -0.75q0 -2.359375 0.484375 -3.796875q0.484375 -1.453125 1.4375 -2.234375q0.96875 -0.78125 2.421875 -0.78125q1.078125 0 1.890625 0.4375q0.8125 0.421875 1.328125 1.25q0.53125 0.8125 0.828125 1.984375q0.3125 1.15625 0.3125 3.140625q0 2.359375 -0.484375 3.8125q-0.484375 1.4375 -1.453125 2.234375q-0.953125 0.78125 -2.421875 0.78125q-1.921875 0 -3.03125 -1.390625q-1.3125 -1.671875 -1.3125 -5.4375zm1.671875 0q0 3.296875 0.765625 4.390625q0.78125 1.078125 1.90625 1.078125q1.140625 0 1.90625 -1.09375q0.765625 -1.09375 0.765625 -4.375q0 -3.296875 -0.765625 -4.375q-0.765625 -1.078125 -1.921875 -1.078125q-1.125 0 -1.796875 0.953125q-0.859375 1.21875 -0.859375 4.5z" fill-rule="nonzero"/><path fill="#000000" fill-opacity="0.0" d="m51.11286 156.17061l195.77954 0l0 42.015747l-195.77954 0z" fill-rule="evenodd"/><path fill="#000000" d="m61.472237 183.0906l0 -13.359375l1.78125 0l0 11.78125l6.5625 0l0 1.578125l-8.34375 0zm16.563217 -1.1875q-0.921875 0.765625 -1.765625 1.09375q-0.828125 0.3125 -1.796875 0.3125q-1.59375 0 -2.453125 -0.78125q-0.859375 -0.78125 -0.859375 -1.984375q0 -0.71875 0.328125 -1.296875q0.328125 -0.59375 0.84375 -0.9375q0.53125 -0.359375 1.1875 -0.546875q0.46875 -0.125 1.453125 -0.25q1.984375 -0.234375 2.921875 -0.5625q0.015625 -0.34375 0.015625 -0.421875q0 -1.0 -0.46875 -1.421875q-0.625 -0.546875 -1.875 -0.546875q-1.15625 0 -1.703125 0.40625q-0.546875 0.40625 -0.8125 1.421875l-1.609375 -0.21875q0.21875 -1.015625 0.71875 -1.640625q0.5 -0.640625 1.453125 -0.984375q0.953125 -0.34375 2.1875 -0.34375q1.25 0 2.015625 0.296875q0.78125 0.28125 1.140625 0.734375q0.375 0.4375 0.515625 1.109375q0.078125 0.421875 0.078125 1.515625l0 2.1875q0 2.28125 0.109375 2.890625q0.109375 0.59375 0.40625 1.15625l-1.703125 0q-0.265625 -0.515625 -0.328125 -1.1875zm-0.140625 -3.671875q-0.890625 0.375 -2.671875 0.625q-1.015625 0.140625 -1.4375 0.328125q-0.421875 0.1875 -0.65625 0.53125q-0.21875 0.34375 -0.21875 0.78125q0 0.65625 0.5 1.09375q0.5 0.4375 1.453125 0.4375q0.9375 0 1.671875 -0.40625q0.75 -0.421875 1.09375 -1.140625q0.265625 -0.5625 0.265625 -1.640625l0 -0.609375zm4.203842 4.859375l0 -9.671875l1.46875 0l0 1.375q1.0625 -1.59375 3.078125 -1.59375q0.875 0 1.609375 0.3125q0.734375 0.3125 1.09375 0.828125q0.375 0.5 0.515625 1.203125q0.09375 0.453125 0.09375 1.59375l0 5.953125l-1.640625 0l0 -5.890625q0 -1.0 -0.203125 -1.484375q-0.1875 -0.5 -0.671875 -0.796875q-0.484375 -0.296875 -1.140625 -0.296875q-1.046875 0 -1.8125 0.671875q-0.75 0.65625 -0.75 2.515625l0 5.28125l-1.640625 0zm16.688217 -3.546875l1.609375 0.21875q-0.265625 1.65625 -1.359375 2.609375q-1.078125 0.9375 -2.671875 0.9375q-1.984375 0 -3.1875 -1.296875q-1.203125 -1.296875 -1.203125 -3.71875q0 -1.578125 0.515625 -2.75q0.515625 -1.171875 1.578125 -1.75q1.0625 -0.59375 2.3125 -0.59375q1.578125 0 2.578125 0.796875q1.0 0.796875 1.28125 2.265625l-1.59375 0.234375q-0.234375 -0.96875 -0.8125 -1.453125q-0.578125 -0.5 -1.390625 -0.5q-1.234375 0 -2.015625 0.890625q-0.78125 0.890625 -0.78125 2.8125q0 1.953125 0.75 2.84375q0.75 0.875 1.953125 0.875q0.96875 0 1.609375 -0.59375q0.65625 -0.59375 0.828125 -1.828125zm2.140625 3.546875l0 -1.328125l6.15625 -7.078125q-1.046875 0.0625 -1.84375 0.0625l-3.9375 0l0 -1.328125l7.90625 0l0 1.078125l-5.25 6.140625l-1.0 1.125q1.09375 -0.078125 2.0625 -0.078125l4.46875 0l0 1.40625l-8.5625 0zm9.59375 -4.84375q0 -2.6875 1.484375 -3.96875q1.25 -1.078125 3.046875 -1.078125q2.0 0 3.265625 1.3125q1.265625 1.296875 1.265625 3.609375q0 1.859375 -0.5625 2.9375q-0.5625 1.0625 -1.640625 1.65625q-1.0625 0.59375 -2.328125 0.59375q-2.03125 0 -3.28125 -1.296875q-1.25 -1.3125 -1.25 -3.765625zm1.6875 0q0 1.859375 0.796875 2.796875q0.8125 0.921875 2.046875 0.921875q1.21875 0 2.03125 -0.921875q0.8125 -0.9375 0.8125 -2.84375q0 -1.796875 -0.8125 -2.71875q-0.8125 -0.921875 -2.03125 -0.921875q-1.234375 0 -2.046875 0.921875q-0.796875 0.90625 -0.796875 2.765625zm8.641342 1.953125l1.625 -0.25q0.125 0.96875 0.75 1.5q0.625 0.515625 1.75 0.515625q1.125 0 1.671875 -0.453125q0.546875 -0.46875 0.546875 -1.09375q0 -0.546875 -0.484375 -0.875q-0.328125 -0.21875 -1.671875 -0.546875q-1.8125 -0.46875 -2.515625 -0.796875q-0.6875 -0.328125 -1.046875 -0.90625q-0.359375 -0.59375 -0.359375 -1.3125q0 -0.640625 0.296875 -1.1875q0.296875 -0.5625 0.8125 -0.921875q0.375 -0.28125 1.03125 -0.46875q0.671875 -0.203125 1.421875 -0.203125q1.140625 0 2.0 0.328125q0.859375 0.328125 1.265625 0.890625q0.42186737 0.5625 0.5781174 1.5l-1.6093674 0.21875q-0.109375 -0.75 -0.640625 -1.171875q-0.515625 -0.421875 -1.46875 -0.421875q-1.140625 0 -1.625 0.375q-0.46875 0.375 -0.46875 0.875q0 0.3125 0.1875 0.578125q0.203125 0.265625 0.640625 0.4375q0.234375 0.09375 1.4375 0.421875q1.75 0.453125 2.4375 0.75q0.6874924 0.296875 1.0781174 0.859375q0.390625 0.5625 0.390625 1.40625q0 0.828125 -0.484375 1.546875q-0.46874237 0.71875 -1.3749924 1.125q-0.90625 0.390625 -2.046875 0.390625q-1.875 0 -2.875 -0.78125q-0.984375 -0.78125 -1.25 -2.328125zm16.948921 2.890625l-2.96875 -9.671875l1.703125 0l1.53125 5.578125l0.578125 2.078125q0.046875 -0.15625 0.5 -2.0l1.546875 -5.65625l1.6875 0l1.4375 5.609375l0.484375 1.84375l0.5625 -1.859375l1.65625 -5.59375l1.59375 0l-3.03125 9.671875l-1.703125 0l-1.53125 -5.796875l-0.375 -1.640625l-1.953125 7.4375l-1.71875 0zm18.316696 -3.109375l1.6875 0.203125q-0.40625 1.484375 -1.484375 2.3125q-1.078125 0.8125 -2.765625 0.8125q-2.125 0 -3.375 -1.296875q-1.234375 -1.3125 -1.234375 -3.671875q0 -2.453125 1.25 -3.796875q1.265625 -1.34375 3.265625 -1.34375q1.9375 0 3.15625 1.328125q1.234375 1.3125 1.234375 3.703125q0 0.15625 0 0.4375l-7.21875 0q0.09375 1.59375 0.90625 2.453125q0.8125 0.84375 2.015625 0.84375q0.90625 0 1.546875 -0.46875q0.640625 -0.484375 1.015625 -1.515625zm-5.390625 -2.65625l5.40625 0q-0.109375 -1.21875 -0.625 -1.828125q-0.78125 -0.953125 -2.03125 -0.953125q-1.125 0 -1.90625 0.765625q-0.765625 0.75 -0.84375 2.015625zm9.141342 -5.703125l0 -1.890625l1.640625 0l0 1.890625l-1.640625 0zm0 11.46875l0 -9.671875l1.640625 0l0 9.671875l-1.640625 0zm3.8323212 0.796875l1.59375 0.234375q0.109375 0.75 0.5625 1.078125q0.609375 0.453125 1.671875 0.453125q1.140625 0 1.75 -0.453125q0.625 -0.453125 0.84375 -1.265625q0.125 -0.5 0.109375 -2.109375q-1.0625 1.265625 -2.671875 1.265625q-2.0 0 -3.09375 -1.4375q-1.09375 -1.4375 -1.09375 -3.453125q0 -1.390625 0.5 -2.5625q0.515625 -1.171875 1.453125 -1.796875q0.953125 -0.640625 2.25 -0.640625q1.703125 0 2.8125 1.375l0 -1.15625l1.515625 0l0 8.359375q0 2.265625 -0.46875 3.203125q-0.453125 0.9375 -1.453125 1.484375q-0.984375 0.546875 -2.453125 0.546875q-1.71875 0 -2.796875 -0.78125q-1.0625 -0.765625 -1.03125 -2.34375zm1.359375 -5.8125q0 1.90625 0.75 2.78125q0.765625 0.875 1.90625 0.875q1.125 0 1.890625 -0.859375q0.765625 -0.875 0.765625 -2.734375q0 -1.78125 -0.796875 -2.671875q-0.78125 -0.90625 -1.890625 -0.90625q-1.09375 0 -1.859375 0.890625q-0.765625 0.875 -0.765625 2.625zm9.328842 5.015625l0 -13.359375l1.640625 0l0 4.796875q1.140625 -1.328125 2.890625 -1.328125q1.078125 0 1.859375 0.421875q0.796875 0.421875 1.140625 1.171875q0.34375 0.75 0.34375 2.171875l0 6.125l-1.640625 0l0 -6.125q0 -1.234375 -0.53125 -1.796875q-0.53125 -0.5625 -1.515625 -0.5625q-0.71875 0 -1.359375 0.390625q-0.640625 0.375 -0.921875 1.015625q-0.265625 0.640625 -0.265625 1.78125l0 5.296875l-1.640625 0zm13.953842 -1.46875l0.234375 1.453125q-0.6875 0.140625 -1.234375 0.140625q-0.890625 0 -1.390625 -0.28125q-0.484375 -0.28125 -0.6875 -0.734375q-0.203125 -0.46875 -0.203125 -1.9375l0 -5.578125l-1.203125 0l0 -1.265625l1.203125 0l0 -2.390625l1.625 -0.984375l0 3.375l1.65625 0l0 1.265625l-1.65625 0l0 5.671875q0 0.6875 0.078125 0.890625q0.09375 0.203125 0.28125 0.328125q0.203125 0.109375 0.578125 0.109375q0.265625 0 0.71875 -0.0625zm6.5697327 -4.375l0 -1.53125l8.84375 -3.734375l0 1.640625l-7.015625 2.875l7.015625 2.90625l0 1.625l-8.84375 -3.78125zm15.843887 -0.75q0 -2.359375 0.484375 -3.796875q0.484375 -1.453125 1.4375 -2.234375q0.96875 -0.78125 2.421875 -0.78125q1.078125 0 1.890625 0.4375q0.8125 0.421875 1.328125 1.25q0.53125 0.8125 0.828125 1.984375q0.3125 1.15625 0.3125 3.140625q0 2.359375 -0.484375 3.8125q-0.484375 1.4375 -1.453125 2.234375q-0.953125 0.78125 -2.421875 0.78125q-1.921875 0 -3.03125 -1.390625q-1.3125 -1.671875 -1.3125 -5.4375zm1.671875 0q0 3.296875 0.765625 4.390625q0.78125 1.078125 1.90625 1.078125q1.140625 0 1.90625 -1.09375q0.765625 -1.09375 0.765625 -4.375q0 -3.296875 -0.765625 -4.375q-0.765625 -1.078125 -1.921875 -1.078125q-1.125 0 -1.796875 0.953125q-0.859375 1.21875 -0.859375 4.5z" fill-rule="nonzero"/><path fill="#000000" fill-opacity="0.0" d="m204.17873 675.27686c8.772079 2.807129 38.07086 16.84253 52.632553 16.84253c14.561676 0 14.627289 0.5258179 34.73752 -16.84253c20.11023 -17.368286 56.80139 -87.0166 85.92389 -87.36743c29.122498 -0.35083008 68.04419 68.42041 88.811035 85.26245c20.766815 16.842102 21.403748 15.439209 35.79001 15.790039c14.3862915 0.35083008 42.106323 -11.404175 50.527588 -13.685059" fill-rule="evenodd"/><path stroke="#980000" stroke-width="1.0" stroke-linejoin="round" stroke-linecap="butt" d="m204.17873 675.27686c8.772079 2.807129 38.07086 16.84253 52.632553 16.84253c14.561676 0 14.627289 0.5258179 34.73752 -16.84253c20.11023 -17.368286 56.80139 -87.0166 85.92389 -87.36743c29.122498 -0.35083008 68.04419 68.42041 88.811035 85.26245c20.766815 16.842102 21.403748 15.439209 35.79001 15.790039c14.3862915 0.35083008 42.106323 -11.404175 50.527588 -13.685059" fill-rule="evenodd"/><path fill="#000000" fill-opacity="0.0" d="m737.47406 261.51968c-4.2178345 -8.187622 -15.010559 -38.82924 -25.307129 -49.12581c-10.29657 -10.296555 -9.971191 -10.714752 -36.47229 -12.653564c-26.501038 -1.938797 -101.693665 21.365189 -122.5343 1.020752c-20.840576 -20.344437 0.26605225 -96.494095 -2.5091553 -123.087364c-2.7752075 -26.59327 -4.2175293 -26.051655 -14.142029 -36.472256c-9.924438 -10.420599 -37.83725 -21.709454 -45.404694 -26.051346" fill-rule="evenodd"/><path stroke="#980000" stroke-width="1.0" stroke-linejoin="round" stroke-linecap="butt" d="m737.47406 261.51968c-4.2178345 -8.187622 -15.010559 -38.82924 -25.307129 -49.12581c-10.29657 -10.296555 -9.971191 -10.714752 -36.47229 -12.653564c-26.501038 -1.938797 -101.693665 21.365189 -122.5343 1.020752c-20.840576 -20.344437 0.26605225 -96.494095 -2.5091553 -123.087364c-2.7752075 -26.59327 -4.2175293 -26.051655 -14.142029 -36.472256c-9.924438 -10.420599 -37.83725 -21.709454 -45.404694 -26.051346" fill-rule="evenodd"/><path fill="#000000" fill-opacity="0.0" d="m735.44617 190.17848l-313.19684 313.19684" fill-rule="evenodd"/><path stroke="#4a86e8" stroke-width="2.0" stroke-linejoin="round" stroke-linecap="butt" stroke-dasharray="2.0,6.0" d="m735.44617 190.17848l-313.19684 313.19684" fill-rule="evenodd"/><path fill="#000000" fill-opacity="0.0" d="m640.54333 108.931755l-305.63782 305.6378" fill-rule="evenodd"/><path stroke="#4a86e8" stroke-width="2.0" stroke-linejoin="round" stroke-linecap="butt" stroke-dasharray="2.0,6.0" d="m640.54333 108.931755l-305.63782 305.6378" fill-rule="evenodd"/><path fill="#000000" fill-opacity="0.0" d="m551.56696 22.055119l-305.32288 305.32285" fill-rule="evenodd"/><path stroke="#4a86e8" stroke-width="2.0" stroke-linejoin="round" stroke-linecap="butt" stroke-dasharray="2.0,6.0" d="m551.56696 22.055119l-305.32288 305.32285" fill-rule="evenodd"/><path fill="#000000" fill-opacity="0.0" d="m466.75613 432.7528l0 267.46454" fill-rule="evenodd"/><path stroke="#4a86e8" stroke-width="2.0" stroke-linejoin="round" stroke-linecap="butt" stroke-dasharray="2.0,6.0" d="m466.75613 432.7528l0 267.46454" fill-rule="evenodd"/><path fill="#000000" fill-opacity="0.0" d="m290.75613 432.7528l0 267.46454" fill-rule="evenodd"/><path stroke="#4a86e8" stroke-width="2.0" stroke-linejoin="round" stroke-linecap="butt" stroke-dasharray="2.0,6.0" d="m290.75613 432.7528l0 267.46454" fill-rule="evenodd"/><path fill="#000000" fill-opacity="0.0" d="m378.75613 432.7528l0 267.46454" fill-rule="evenodd"/><path stroke="#4a86e8" stroke-width="2.0" stroke-linejoin="round" stroke-linecap="butt" stroke-dasharray="2.0,6.0" d="m378.75613 432.7528l0 267.46454" fill-rule="evenodd"/><path fill="#000000" fill-opacity="0.0" d="m480.41208 5.233596l267.62204 267.62207" fill-rule="evenodd"/><path stroke="#b7b7b7" stroke-width="1.0" stroke-linejoin="round" stroke-linecap="butt" d="m480.41208 5.233596l267.62204 267.62207" fill-rule="evenodd"/></g></svg>